<svg width="18" height="16" viewBox="0 0 18 16" fill="none" xmlns="http://www.w3.org/2000/svg">
<path d="M8.77905 4.9483L8.74003 4.25625C8.62297 2.46258 9.65045 0.824272 11.2762 0.18872C11.8745 -0.0372539 12.8889 -0.0655006 13.5522 0.132227C13.8124 0.216967 14.3066 0.499434 14.6578 0.753655L15.295 1.21973L15.9974 0.979629C16.3876 0.852518 16.9078 0.640668 17.1419 0.499434C17.363 0.372324 17.5581 0.301706 17.5581 0.344076C17.5581 0.584174 17.0769 1.40333 16.6737 1.85528C16.1274 2.49083 16.2835 2.54732 17.389 2.12362C18.0523 1.88352 18.0653 1.88352 17.9353 2.15187C17.8572 2.2931 17.454 2.78742 17.0248 3.23937C16.2965 4.01615 16.2575 4.10089 16.2575 4.75057C16.2575 5.75333 15.8153 7.84359 15.3731 8.98758C14.5537 11.1343 12.7979 13.3517 11.0421 14.4674C8.57095 16.0351 5.28043 16.4306 2.51016 15.5126C1.58673 15.2019 0 14.411 0 14.2697C0 14.2273 0.481222 14.1709 1.06649 14.1567C2.28906 14.1285 3.51162 13.7613 4.5521 13.1116L5.25442 12.6597L4.44805 12.3631C3.30352 11.9394 2.27605 10.9648 2.01593 10.0468C1.93789 9.75024 1.96391 9.73612 2.69224 9.73612L3.44659 9.72199L2.80929 9.39716C2.05495 8.98758 1.36563 8.29553 1.02747 7.58936C0.78036 7.08092 0.468216 5.7957 0.559258 5.69683C0.58527 5.65446 0.858396 5.7392 1.17054 5.85219C2.06795 6.20528 2.18501 6.12053 1.66477 5.52735C0.689318 4.45398 0.39018 2.85804 0.858396 1.34684L1.0795 0.668914L1.93789 1.58693C3.6937 3.43709 5.76166 4.53872 8.12875 4.86355L8.77905 4.9483Z" fill="#1565C0"/>
</svg>
