<svg width="93" height="13" viewBox="0 0 93 13" fill="none" xmlns="http://www.w3.org/2000/svg">
<path d="M63.4421 0.558594C62.2707 0.559671 61.1258 0.906974 60.1523 1.5566C59.1788 2.20623 58.4204 3.12902 57.9728 4.20832C57.5253 5.28761 57.4087 6.47497 57.6379 7.62029C57.8671 8.7656 58.4318 9.81747 59.2605 10.6429C60.0892 11.4684 61.1448 12.0303 62.2938 12.2578C63.4429 12.4852 64.6337 12.3679 65.7159 11.9208C66.7981 11.4736 67.723 10.7166 68.3737 9.74543C69.0244 8.77429 69.3717 7.63261 69.3717 6.46472C69.3699 4.89793 68.7444 3.39591 67.6326 2.28853C66.5209 1.18115 65.0137 0.558953 63.4421 0.558594ZM63.4421 11.4682C62.4492 11.4682 61.4785 11.1746 60.653 10.6246C59.8274 10.0746 59.1839 9.2929 58.804 8.37831C58.4241 7.46372 58.3248 6.45735 58.5186 5.48647C58.7124 4.51559 59.1907 3.62382 59.8929 2.92393C60.5951 2.22405 61.4897 1.7475 62.4636 1.55454C63.4375 1.36158 64.4469 1.46088 65.3642 1.8399C66.2814 2.21891 67.0654 2.8606 67.6168 3.68382C68.1683 4.50704 68.4625 5.4748 68.4622 6.46472C68.4575 7.79052 67.9271 9.06067 66.9866 9.99803C66.0461 10.9354 64.7719 11.4639 63.4421 11.4682Z" fill="white"/>
<path fill-rule="evenodd" clip-rule="evenodd" d="M63.4464 0C62.1637 2.83496e-08 60.9099 0.379172 59.8434 1.08957C58.7769 1.79997 57.9457 2.8097 57.4547 3.99107C56.9638 5.17244 56.8353 6.47241 57.0855 7.72659C57.3356 8.98078 57.9531 10.1329 58.86 11.0372C59.7669 11.9415 60.9223 12.5574 62.1803 12.807C63.4382 13.0566 64.7422 12.9288 65.9273 12.4396C67.1123 11.9505 68.1253 11.1219 68.8381 10.0588C69.5509 8.99574 69.9315 7.7458 69.9318 6.46706C69.9303 4.75257 69.2466 3.10869 68.0307 1.89623C66.8148 0.683774 65.1661 0.00180261 63.4464 0ZM63.4464 10.9096C62.5644 10.9096 61.7023 10.6488 60.969 10.1603C60.2358 9.67182 59.6643 8.97749 59.3268 8.16515C58.9894 7.3528 58.9012 6.45894 59.0733 5.59661C59.2455 4.73428 59.6703 3.94221 60.294 3.32059C60.9177 2.69896 61.7123 2.2757 62.5773 2.10433C63.4423 1.93297 64.3389 2.02119 65.1536 2.35785C65.9683 2.69451 66.6646 3.26448 67.1544 3.99568C67.6442 4.72688 67.9054 5.58645 67.9052 6.4657C67.9005 7.64309 67.4292 8.77091 66.594 9.60333C65.7587 10.4358 64.6273 10.9053 63.4464 10.9096Z" fill="white"/>
<path d="M85.5035 1.78985V6.01046H90.9401V6.92811H85.5035V11.1405H91.739V12.0405H84.6172V0.90625H91.739V1.78985H85.5035Z" fill="white"/>
<path d="M80.9293 12.0583H79.9734L73.4087 2.42987V12.0583H72.4883V0.894118H73.4784L73.5303 0.963554L80.0089 10.4708V0.888672H80.9293V12.0583Z" fill="white"/>
<path d="M55.4157 0.888672V1.80631H51.5072V12.0583H50.5868V1.80631H46.6797V0.888672H55.4157Z" fill="white"/>
<path d="M44.5694 9.23421C44.5542 9.69094 44.4357 10.1383 44.2229 10.5431C44.0101 10.9478 43.7084 11.2995 43.3404 11.5719C42.6084 12.1151 41.6524 12.3874 40.5913 12.3874C40.5158 12.3896 40.4403 12.3837 40.366 12.3697C39.2189 12.3343 38.2124 11.9708 37.4831 11.2955C36.8743 10.7322 36.487 9.97092 36.3906 9.14844V8.96056H37.2974L37.3111 9.12938C37.4127 9.7343 37.7124 10.2887 38.1632 10.706C38.719 11.2084 39.4824 11.4671 40.4206 11.5025C41.3588 11.5378 42.1577 11.3295 42.7313 10.9129C43.0042 10.7243 43.2284 10.4737 43.3853 10.1819C43.5423 9.89007 43.6275 9.56527 43.634 9.23421C43.6695 8.48948 43.339 7.91766 42.6616 7.46428C42.0362 7.05584 41.1854 6.80668 40.508 6.59838L40.1434 6.4949L39.8771 6.41185C39.2516 6.22125 38.4869 5.9789 37.8614 5.54595C37.098 5.02586 36.7156 4.33286 36.7498 3.48466C36.7577 3.0582 36.8694 2.64003 37.0751 2.26606C37.2809 1.89209 37.5746 1.57348 37.9311 1.33759C38.6439 0.835206 39.6504 0.557462 40.7279 0.592861C42.4309 0.662297 43.7678 1.5105 44.3236 2.8788L44.3414 2.93053L43.4551 3.17288C43.0181 2.15176 41.9816 1.5105 40.6965 1.47647C39.776 1.45877 39.029 1.64937 38.5115 2.01289C38.2579 2.17996 38.049 2.40615 37.9029 2.67186C37.7568 2.93757 37.6779 3.23478 37.673 3.53776C37.6566 4.10958 37.9338 4.56023 38.577 4.94009C39.167 5.28727 39.9659 5.54731 40.6965 5.75698L40.8877 5.80871C41.6169 6.03472 42.5374 6.3111 43.2844 6.81349C44.1693 7.36353 44.6213 8.1954 44.5694 9.23421Z" fill="white"/>
<path d="M28.0466 0.888676H24.5547V12.0529H28.0466C31.1548 12.0529 33.6908 9.54228 33.6908 6.47077C33.6807 4.98563 33.0814 3.56486 32.0238 2.5189C30.9662 1.47294 29.5363 0.886843 28.0466 0.888676ZM28.0466 11.1584H25.4519V1.78998H28.0466C28.6704 1.77938 29.29 1.8927 29.8694 2.12335C30.4487 2.35399 30.9762 2.69733 31.4211 3.13335C31.866 3.56937 32.2193 4.08934 32.4605 4.66292C32.7017 5.2365 32.8259 5.85223 32.8259 6.47417C32.8259 7.09612 32.7017 7.71184 32.4605 8.28543C32.2193 8.85901 31.866 9.37898 31.4211 9.815C30.9762 10.251 30.4487 10.5944 29.8694 10.825C29.29 11.0556 28.6704 11.169 28.0466 11.1584Z" fill="white"/>
<path fill-rule="evenodd" clip-rule="evenodd" d="M86.0674 2.34981V5.45536H91.5041V7.49351H86.0674V10.58H92.303V12.6018H84.0586V0.345703H92.303V2.34981H86.0674Z" fill="white"/>
<path fill-rule="evenodd" clip-rule="evenodd" d="M81.496 0.330078V12.6189H79.5977L73.974 4.24571V12.6189H71.9297V0.330078H73.7624L73.9918 0.63369L79.4516 8.64468V0.330078H81.496Z" fill="white"/>
<path fill-rule="evenodd" clip-rule="evenodd" d="M55.9746 0.330078V2.36822H52.0661V12.6189H50.0217V2.36822H46.1133V0.330078H55.9746Z" fill="white"/>
<path fill-rule="evenodd" clip-rule="evenodd" d="M45.1287 9.25661C45.1094 9.79507 44.969 10.3223 44.718 10.7995C44.467 11.2767 44.1117 11.6916 43.6784 12.0136C42.8345 12.6345 41.7556 12.9367 40.6003 12.9367H40.5934C40.502 12.9379 40.4107 12.9315 40.3203 12.9176C39.0912 12.8727 37.9537 12.4738 37.1152 11.6923C36.4074 11.0391 35.9566 10.1557 35.8438 9.20079V9.16675V8.4016H37.8294L37.884 9.05919C37.9679 9.53211 38.2037 9.96502 38.5559 10.2927C38.9874 10.6807 39.6102 10.9122 40.4555 10.9435C41.3008 10.9748 41.97 10.7842 42.4152 10.4615C42.6186 10.3232 42.7857 10.1382 42.9026 9.92216C43.0195 9.70612 43.0828 9.46529 43.0871 9.21985V9.20896C43.1117 8.69295 42.9068 8.29404 42.3647 7.93461C41.8553 7.5956 41.1547 7.38184 40.4828 7.17626L40.3626 7.1395L39.9912 7.0333L39.7071 6.94208C39.0899 6.7542 38.2486 6.49143 37.544 6.00402C36.644 5.39271 36.1483 4.52816 36.1893 3.46484C36.2004 2.95168 36.3353 2.44873 36.5825 1.99849C36.8297 1.54824 37.1819 1.16393 37.6095 0.878018C38.4385 0.29394 39.5719 -0.0055871 40.7505 0.0325345C42.631 0.108778 44.1905 1.0591 44.8474 2.66701L44.8542 2.68335L45.0645 3.31508L43.1335 3.84334L42.941 3.39268C42.6064 2.60983 41.787 2.0666 40.6808 2.04073C39.8369 2.02439 39.221 2.20274 38.829 2.47504C38.6469 2.59304 38.4971 2.7544 38.3931 2.94455C38.2892 3.13471 38.2344 3.34767 38.2336 3.56423C38.2239 3.72416 38.2644 3.88314 38.3497 4.01897C38.4833 4.20525 38.6581 4.35849 38.8604 4.4669C39.3835 4.77323 40.1182 5.01149 40.8447 5.22389L41.0386 5.27562H41.0468L41.1233 5.30013C41.828 5.5166 42.7867 5.81205 43.5815 6.34575C44.6344 6.9979 45.1902 8.01493 45.1287 9.25661Z" fill="white"/>
<path fill-rule="evenodd" clip-rule="evenodd" d="M28.0415 0.330082H23.9883V12.6189H28.0415C31.4556 12.6189 34.2483 9.86185 34.2483 6.48264C34.2407 4.84708 33.5832 3.28118 32.4199 2.12798C31.2565 0.974767 29.6821 0.328263 28.0415 0.330082ZM28.0415 10.5984H26.0149V2.35053H28.0415C29.1386 2.35053 30.1907 2.78501 30.9665 3.5584C31.7422 4.33179 32.178 5.38073 32.178 6.47447C32.178 7.56821 31.7422 8.61715 30.9665 9.39054C30.1907 10.1639 29.1386 10.5984 28.0415 10.5984Z" fill="white"/>
<path fill-rule="evenodd" clip-rule="evenodd" d="M15.3834 2.34981V5.45536H20.8023V7.49351H15.3834V10.58H21.6012V12.6018H13.3555V0.345703H21.6012V2.34981H15.3834Z" fill="white"/>
<path fill-rule="evenodd" clip-rule="evenodd" d="M11.2373 12.6049H8.83514L6.21312 8.31762H2.97246L1.7666 6.31624H6.75937C7.02156 6.31624 7.28119 6.26475 7.52342 6.16472C7.76566 6.06469 7.98576 5.91807 8.17116 5.73323C8.35655 5.5484 8.50362 5.32897 8.60396 5.08747C8.70429 4.84597 8.75594 4.58714 8.75594 4.32574C8.75594 4.06435 8.70429 3.80551 8.60396 3.56401C8.50362 3.32252 8.35655 3.10308 8.17116 2.91825C7.98576 2.73342 7.76566 2.5868 7.52342 2.48677C7.28119 2.38673 7.02156 2.33525 6.75937 2.33525H1.24492L0.0390625 0.351562H6.75937C7.6686 0.355791 8.54915 0.669243 9.25543 1.24009C9.96172 1.81095 10.4514 2.60501 10.6436 3.49099C10.8358 4.37698 10.719 5.30183 10.3124 6.11262C9.90586 6.92342 9.23392 7.57161 8.4077 7.95002L11.2373 12.6049Z" fill="white"/>
<path d="M0.40625 10.1523H2.8644V12.603H0.40625V10.1523Z" fill="#E70000"/>
</svg>
