<svg width="18" height="17" viewBox="0 0 18 17" fill="none" xmlns="http://www.w3.org/2000/svg">
<path fill-rule="evenodd" clip-rule="evenodd" d="M4.60384 5.5293H1.15186V16.9994H4.60384V5.5293Z" fill="#1565C0"/>
<path fill-rule="evenodd" clip-rule="evenodd" d="M4.83074 1.98122C4.80833 0.856589 4.08111 0 2.9002 0C1.7193 0 0.947266 0.856589 0.947266 1.98122C0.947266 3.08256 1.69648 3.96382 2.85539 3.96382H2.87745C4.08111 3.96382 4.83074 3.08256 4.83074 1.98122Z" fill="#1565C0"/>
<path fill-rule="evenodd" clip-rule="evenodd" d="M17.0526 10.4226C17.0526 6.89948 15.3496 5.25977 13.0781 5.25977C11.2453 5.25977 10.4247 6.37306 9.96656 7.15405V5.52941H6.51416C6.55966 6.6057 6.51416 16.9995 6.51416 16.9995H9.96656V10.5937C9.96656 10.2509 9.98897 9.90889 10.0802 9.66345C10.3297 8.9786 10.8978 8.26955 11.8515 8.26955C13.1011 8.26955 13.6006 9.32133 13.6006 10.8627V16.9992H17.0525L17.0526 10.4226Z" fill="#1565C0"/>
</svg>
