<svg width="19" height="19" viewBox="0 0 19 19" fill="none" xmlns="http://www.w3.org/2000/svg">
<path fill-rule="evenodd" clip-rule="evenodd" d="M9.50089 0C6.92082 0 6.59703 0.0112817 5.58368 0.0573963C4.57232 0.103709 3.88198 0.263823 3.27793 0.49875C2.6531 0.741396 2.12307 1.06598 1.59503 1.59422C1.06658 2.12226 0.741998 2.65228 0.498558 3.27691C0.263034 3.88115 0.10272 4.57168 0.0571989 5.58264C0.0118756 6.59597 0 6.91996 0 9.5C0 12.08 0.0114797 12.4028 0.0573969 13.4162C0.103908 14.4275 0.264023 15.1179 0.498755 15.7219C0.741601 16.3467 1.06619 16.8768 1.59443 17.4048C2.12228 17.9332 2.65231 18.2586 3.27674 18.5012C3.88119 18.7362 4.57172 18.8963 5.58289 18.9426C6.59624 18.9887 6.91983 19 9.4997 19C12.08 19 12.4028 18.9887 13.4161 18.9426C14.4275 18.8963 15.1186 18.7362 15.7231 18.5012C16.3477 18.2586 16.8769 17.9332 17.4048 17.4048C17.9332 16.8768 18.2578 16.3467 18.5012 15.7221C18.7348 15.1179 18.8951 14.4273 18.9426 13.4164C18.9881 12.403 19 12.08 19 9.5C19 6.91996 18.9881 6.59617 18.9426 5.58283C18.8951 4.57148 18.7348 3.88115 18.5012 3.2771C18.2578 2.65228 17.9332 2.12226 17.4048 1.59422C16.8763 1.06578 16.3479 0.741198 15.7225 0.49875C15.1168 0.263823 14.4261 0.103709 13.4147 0.0573963C12.4014 0.0112817 12.0788 0 9.49792 0H9.50089ZM9.50089 1.71198C9.18382 1.71198 8.90159 1.71158 8.64865 1.71198V1.7096C6.87807 1.71158 6.53844 1.72346 5.66206 1.76304C4.7358 1.80559 4.23289 1.95997 3.89801 2.09059C3.45467 2.26318 3.138 2.46901 2.8055 2.80151C2.47299 3.13401 2.26676 3.45068 2.09457 3.89401C1.96454 4.22889 1.80977 4.7316 1.76741 5.65785C1.72189 6.6593 1.71279 6.95855 1.71279 9.49545C1.71279 12.0323 1.72189 12.3332 1.76741 13.3346C1.80957 14.2609 1.96454 14.7636 2.09457 15.0981C2.26716 15.5416 2.47299 15.8575 2.8055 16.19C3.138 16.5225 3.45467 16.7283 3.89801 16.9005C4.23309 17.0305 4.7358 17.1853 5.66206 17.2281C6.66353 17.2736 6.96417 17.2835 9.50089 17.2835C12.0374 17.2835 12.3383 17.2736 13.3397 17.2281C14.266 17.1857 14.7691 17.0313 15.1036 16.9007C15.5471 16.7285 15.8628 16.5227 16.1953 16.1902C16.5278 15.8579 16.734 15.5422 16.9062 15.0989C17.0363 14.7644 17.191 14.2617 17.2334 13.3354C17.2789 12.334 17.2888 12.0331 17.2888 9.49782C17.2888 6.96251 17.2789 6.66168 17.2334 5.66022C17.1912 4.73397 17.0363 4.23126 16.9062 3.89678C16.7336 3.45345 16.5278 3.13678 16.1953 2.80428C15.863 2.47178 15.5469 2.26595 15.1036 2.09376C14.7687 1.96373 14.266 1.80896 13.3397 1.7666C12.3381 1.72108 12.0374 1.71198 9.50089 1.71198Z" fill="#1565C0"/>
<path fill-rule="evenodd" clip-rule="evenodd" d="M9.50089 4.62136C6.80662 4.62136 4.62219 6.80576 4.62219 9.5C4.62219 12.1942 6.80662 14.3777 9.50089 14.3777C12.1952 14.3777 14.3788 12.1942 14.3788 9.5C14.3788 6.80576 12.1952 4.62136 9.50089 4.62136ZM12.6676 9.5C12.6676 7.75101 11.2497 6.33333 9.50089 6.33333C7.75188 6.33333 6.33419 7.75101 6.33419 9.5C6.33419 11.2488 7.75188 12.6667 9.50089 12.6667C11.2497 12.6667 12.6676 11.2488 12.6676 9.5Z" fill="#1565C0"/>
<path d="M14.572 3.28938C13.9426 3.28938 13.432 3.79941 13.432 4.42898C13.432 5.05835 13.9426 5.56898 14.572 5.56898C15.2013 5.56898 15.712 5.05835 15.712 4.42898C15.712 3.7996 15.2013 3.28938 14.572 3.28938Z" fill="#1565C0"/>
</svg>
