<svg width="113" height="32" viewBox="0 0 113 32" fill="none" xmlns="http://www.w3.org/2000/svg">
<g clip-path="url(#clip0_72_7941)">
<path d="M0 0H5.46697L5.45702 10.683C7.3629 8.46961 10.2476 7.169 13.5222 7.169C20.1709 7.169 24.7168 12.7044 24.7168 19.5855C24.7168 26.4665 20.1709 31.953 13.5222 31.953C10.1501 31.953 7.4206 30.6896 5.46697 28.4762V31.4516H0V0ZM19.1941 19.5874C19.1941 15.3996 16.2617 12.3205 12.1555 12.3205C8.29396 12.3205 5.45901 15.3996 5.45901 19.5874C5.45901 23.7752 8.3437 26.8054 12.1555 26.8054C16.2617 26.8054 19.1941 23.7733 19.1941 19.5874Z" fill="white"/>
<path d="M26.9531 19.5874C26.9531 12.7044 31.499 7.1709 38.1477 7.1709C41.4223 7.1709 44.307 8.46955 46.2129 10.6849V7.22574H51.638V31.477H46.2129V28.4938C44.307 30.7072 41.4223 31.7453 38.1477 31.7453C31.499 31.7453 26.9531 26.4254 26.9531 19.5913V19.5874ZM46.2129 19.5874C46.2129 15.3996 43.3779 12.3204 39.5164 12.3204C35.4102 12.3204 32.4778 15.3996 32.4778 19.5874C32.4778 23.7752 35.4102 26.8053 39.5164 26.8053C43.3302 26.8053 46.2129 23.8222 46.2129 19.5874Z" fill="white"/>
<path d="M54.2695 28.4899L56.3226 24.1101C57.8863 25.3618 60.3791 26.9503 63.9959 26.9503C66.1962 26.9503 68.7864 26.1315 68.7864 24.447C68.7864 22.7625 66.3434 22.2807 63.9481 21.6068C59.3525 20.3552 55.4433 19.0076 55.4433 14.3399C55.4433 9.67222 60.2816 7.16895 64.535 7.16895C68.1518 7.16895 70.5471 8.08368 73.1871 9.62325L71.1837 13.954C69.0331 12.7514 66.98 12.1735 64.5848 12.1735C62.7764 12.1735 60.968 12.9923 60.968 14.2439C60.968 15.8795 62.9713 16.2654 65.1219 16.6982C69.618 17.66 74.3111 19.4424 74.3111 24.351C74.3111 29.9335 68.494 31.9549 63.9979 31.9549C59.0123 31.9549 55.5905 29.7415 54.2715 28.4899H54.2695Z" fill="white"/>
<path d="M76.2539 19.5874C76.2539 12.7533 81.6791 7.1709 88.7177 7.1709C95.1694 7.1709 100.352 12.7063 100.352 19.3954C100.352 20.4061 100.205 21.4658 100.205 21.4658H81.8741C82.6559 25.2677 85.7853 27.2402 89.4021 27.2402C91.8451 27.2402 94.3876 26.5174 96.3432 25.1698L98.4938 29.1167C95.7563 30.9461 92.5295 31.9568 89.3046 31.9568C82.4132 31.9568 76.2539 27.4321 76.2539 19.5893V19.5874ZM95.072 17.517C94.5348 14.1009 91.7476 11.8386 88.4233 11.8386C85.2959 11.8386 82.5584 14.1009 81.8243 17.517H95.072Z" fill="white"/>
<path d="M109.152 32.0002C111.277 32.0002 113 30.3042 113 28.212C113 26.1199 111.277 24.4238 109.152 24.4238C107.027 24.4238 105.305 26.1199 105.305 28.212C105.305 30.3042 107.027 32.0002 109.152 32.0002Z" fill="#1565C0"/>
<path d="M111.803 17.3031V0.152344H106.502L99.9922 4.79848L102.308 8.98432L106.404 6.74352V17.3266C107.285 17.1112 108.207 16.9956 109.156 16.9956C110.104 16.9956 110.956 17.1053 111.807 17.3051L111.803 17.3031Z" fill="white"/>
</g>
<defs>
<clipPath id="clip0_72_7941">
<rect width="113" height="32" fill="white"/>
</clipPath>
</defs>
</svg>
