<svg width="538" height="650" viewBox="0 0 538 650" fill="none" xmlns="http://www.w3.org/2000/svg">
<g clip-path="url(#clip0_212_14559)">
<path d="M-74 0.999972L576 1" stroke="white" stroke-miterlimit="10"/>
<path d="M-74 44L576 44" stroke="white" stroke-miterlimit="10"/>
<path d="M-74 87L576 87" stroke="white" stroke-miterlimit="10"/>
<path d="M-74 130L576 130" stroke="white" stroke-miterlimit="10"/>
<path d="M-74 173L576 173" stroke="white" stroke-miterlimit="10"/>
<path d="M-74 216L576 216" stroke="white" stroke-miterlimit="10"/>
<path d="M-74 259L576 259" stroke="white" stroke-miterlimit="10"/>
<path d="M-74 302L576 302" stroke="white" stroke-miterlimit="10"/>
<path d="M-74 345L576 345" stroke="white" stroke-miterlimit="10"/>
<path d="M-74 388L576 388" stroke="white" stroke-miterlimit="10"/>
<path d="M-74 431L576 431" stroke="white" stroke-miterlimit="10"/>
<path d="M-74 474L576 474" stroke="white" stroke-miterlimit="10"/>
<path d="M-74 517L576 517" stroke="white" stroke-miterlimit="10"/>
<path d="M-74 560L576 560" stroke="white" stroke-miterlimit="10"/>
<path d="M-74 603L576 603" stroke="white" stroke-miterlimit="10"/>
<path d="M-74 646L576 646" stroke="white" stroke-miterlimit="10"/>
</g>
<defs>
<clipPath id="clip0_212_14559">
<rect width="538" height="650" fill="white"/>
</clipPath>
</defs>
</svg>
